<svg xmlns="http://www.w3.org/2000/svg" viewBox="0 0 16.36 14.7"><defs><style>.cls-1{fill:gray;fill-rule:evenodd;}</style></defs><g id="Capa_2" data-name="Capa 2"><g id="Capa_1-2" data-name="Capa 1"><path class="cls-1" d="M0,6.12v0C2.76,4.09,5.43,2,8.2,0l2.72,2,.35.22v-2h2.14V3.87c1,.79,2.05,1.45,2.95,2.28-.44.53-.84,1.1-1.28,1.63l-.45-.32-.41-.25c0,2.48,0,5.05,0,7.49h-12V7.17c-.27.11-.58.45-.9.61C.88,7.2.43,6.67,0,6.12m10.34,7.39H13V6.41C11.43,5.17,9.79,4,8.2,2.79,7,3.67,5.79,4.57,4.55,5.51c-.33.24-1.07.66-1.16.93a8.61,8.61,0,0,0,0,1.76v5.31H6.05"/></g></g></svg>