<svg xmlns="http://www.w3.org/2000/svg" viewBox="0 0 58.48 61.8"><defs><style>.cls-1{fill:#fff;}</style></defs><g id="Capa_2" data-name="Capa 2"><g id="Capa_1-2" data-name="Capa 1"><rect class="cls-1" x="31.19" y="30.04" width="3.36" height="3.36"/><rect class="cls-1" x="37.9" y="30.04" width="3.36" height="3.36"/><rect class="cls-1" x="31.19" y="36.75" width="3.36" height="3.36"/><rect class="cls-1" x="37.9" y="36.75" width="3.36" height="3.36"/><polygon class="cls-1" points="41.26 7.82 41.26 11.74 37.9 11.74 37.9 7.82 34.55 7.82 34.55 19.01 37.9 19.01 37.9 15.09 41.26 15.09 41.26 19.01 44.61 19.01 44.61 7.82 41.26 7.82"/><rect class="cls-1" x="31.19" y="23.48" width="3.36" height="3.36"/><rect class="cls-1" x="37.9" y="23.48" width="3.36" height="3.36"/><rect class="cls-1" x="44.61" y="30.04" width="3.36" height="3.36"/><rect class="cls-1" x="44.61" y="36.75" width="3.36" height="3.36"/><rect class="cls-1" x="44.61" y="23.48" width="3.36" height="3.36"/><path class="cls-1" d="M20.34,54H58.48V3.38l-6.71,0V0H27.16V3.38H20.34Zm34.79-3.35H41.26V43.71H37.9v6.94H23.69V6.73h6.83V3.36H48.41V6.71l6.72,0V50.65Z"/><path class="cls-1" d="M13.88,23.48A13.89,13.89,0,0,0,0,37.36c0,9.49,12.42,23.43,13,24a1.25,1.25,0,0,0,1.86,0c.52-.59,12.94-14.53,12.94-24A13.89,13.89,0,0,0,13.88,23.48Zm0,20.86a7,7,0,1,1,7-7A7,7,0,0,1,13.88,44.34Z"/></g></g></svg>