<svg xmlns="http://www.w3.org/2000/svg" viewBox="0 0 11.46 20.22"><defs><style>.cls-1{fill:gray;}</style></defs><g id="Capa_2" data-name="Capa 2"><g id="Capa_1-2" data-name="Capa 1"><path class="cls-1" d="M10.65,0H.81A.81.81,0,0,0,0,.81v18.6a.81.81,0,0,0,.81.81h9.84a.81.81,0,0,0,.81-.81V.81A.81.81,0,0,0,10.65,0M5.73.68a.61.61,0,1,1-.61.6.6.6,0,0,1,.61-.6m0,18.87a.84.84,0,0,1-.84-.85.83.83,0,0,1,.84-.84.84.84,0,0,1,.85.84.85.85,0,0,1-.85.85m4.69-3a.4.4,0,0,1-.41.4H1.42a.4.4,0,0,1-.41-.4V3a.41.41,0,0,1,.41-.41H10a.41.41,0,0,1,.41.41Z"/></g></g></svg>