<?xml version="1.0" encoding="UTF-8"?>
<svg xmlns="http://www.w3.org/2000/svg" version="1.1" xmlns:xlink="http://www.w3.org/1999/xlink" viewBox="0 0 1078 1080">
  <defs>
    <style>
      .cls-1 {
        fill: url(#linear-gradient-2);
      }

      .cls-2 {
        fill: #fff;
      }

      .cls-3 {
        fill: #4d4d4d;
      }

      .cls-4 {
        fill: url(#linear-gradient);
      }
    </style>
    <linearGradient id="linear-gradient" x1="117.34" y1="209.97" x2="960.81" y2="209.97" gradientUnits="userSpaceOnUse">
      <stop offset="0" stop-color="#0075b8"/>
      <stop offset=".01" stop-color="#0276b8"/>
      <stop offset=".35" stop-color="#398fc8"/>
      <stop offset=".63" stop-color="#60a1d3"/>
      <stop offset=".86" stop-color="#79acda"/>
      <stop offset="1" stop-color="#82b1dd"/>
    </linearGradient>
    <linearGradient id="linear-gradient-2" y1="484.42" y2="484.42" xlink:href="#linear-gradient"/>
  </defs>
  <!-- Generator: Adobe Illustrator 28.6.0, SVG Export Plug-In . SVG Version: 1.2.0 Build 709)  -->
  <g>
    <g id="Capa_1">
      <g>
        <g>
          <polygon class="cls-4" points="719.81 183.19 719.81 116.25 358.35 116.25 358.35 183.19 117.34 183.19 117.34 303.68 398.5 303.68 398.5 236.77 679.67 236.77 679.67 303.68 960.81 303.68 960.81 183.19 719.81 183.19"/>
          <rect class="cls-1" x="117.34" y="424.16" width="843.47" height="120.51"/>
          <polygon class="cls-2" points="679.67 303.68 679.67 236.77 398.5 236.77 398.5 303.68 117.34 303.68 117.34 424.16 960.81 424.16 960.81 303.68 679.67 303.68"/>
        </g>
        <g>
          <path class="cls-3" d="M149.69,788.95v-94.51h-32.33v-26.77h95.95v26.77h-32.94v94.51h-30.68Z"/>
          <path class="cls-3" d="M323.47,667.67v80.51c0,32.94-23.06,43.24-51.06,43.24s-51.27-10.3-51.27-43.24v-80.51h30.88v71.65c0,15.65,2.68,26.35,20.39,26.35s20.18-10.71,20.18-26.77v-71.24h30.88Z"/>
          <path class="cls-3" d="M447.21,762.8c-11.12,19.15-25.33,28.62-53.33,28.62-33.36,0-56.42-23.06-56.42-63.42s22.03-62.8,60.12-62.8c25.94,0,41.8,11.74,50.65,31.29l-30.06,14.62c-3.29-11.32-8.44-18.53-21.41-18.53-17.09,0-27.59,13.59-27.59,36.24s9.47,35.21,28.41,35.21c9.68,0,18.32-5.56,22.65-16.68l26.97,15.44Z"/>
          <path class="cls-3" d="M559.42,667.67v80.51c0,32.94-23.06,43.24-51.06,43.24s-51.27-10.3-51.27-43.24v-80.51h30.88v71.65c0,15.65,2.68,26.35,20.39,26.35s20.18-10.71,20.18-26.77v-71.24h30.88Z"/>
          <path class="cls-3" d="M635.18,761.56l-14.82-23.06c-5.97-9.26-9.26-17.91-9.26-17.91h-.82s1.23,6.59,1.23,20.18v48.18h-30.88v-121.28h30.47l21,35.83c7.62,12.97,9.47,18.94,9.47,18.94h.82s1.85-5.97,9.47-18.94l21-35.83h30.47v121.28h-30.88v-48.18c0-13.59,1.23-20.18,1.23-20.18h-.82s-3.29,8.65-9.26,17.91l-14.82,23.06h-13.59Z"/>
          <path class="cls-3" d="M798.87,766.3h-44.68l-7.62,22.65h-32.33l43.86-121.28h37.68l44.27,121.28h-33.15l-8.03-22.65ZM760.98,656.15l13.38-30.88h37.88l-23.26,30.88h-28ZM762.84,740.56h26.97l-3.29-9.26c-7.21-20.18-9.68-35.41-9.68-35.41h-.82s-3.09,15.44-9.88,35.21l-3.29,9.47Z"/>
          <path class="cls-3" d="M920.76,722.65c6.59,8.85,9.06,14.21,9.06,14.21h.82s-.62-9.47-.62-24.91v-44.27h30.88v121.28h-27.59l-41.18-53.74c-7.83-10.09-10.71-16.27-10.71-16.27h-.82s1.23,9.06,1.23,26.97v43.03h-30.88v-121.28h28.62l41.18,54.98Z"/>
          <path class="cls-3" d="M196.64,960.53v-94.51h-32.33v-26.77h95.95v26.77h-32.94v94.51h-30.68Z"/>
          <path class="cls-3" d="M370.41,839.25v80.51c0,32.94-23.06,43.24-51.06,43.24s-51.27-10.3-51.27-43.24v-80.51h30.88v71.65c0,15.65,2.68,26.35,20.39,26.35s20.18-10.71,20.18-26.77v-71.24h30.88Z"/>
          <path class="cls-3" d="M458.74,960.53c-3.91-2.88-5.56-7.83-6.79-12.97l-4.33-17.09c-2.27-9.06-5.97-10.5-14.41-10.5h-10.71v40.56h-30.88v-121.28h49.62c26.97,0,45.09,9.27,45.09,37.89,0,18.74-10.29,28.62-26.15,30.47v.62c11.12,1.85,16.88,6.38,19.77,16.88l6.18,22.24c1.44,4.94,2.88,8.85,7,13.18h-34.39ZM422.5,894.23h16.47c9.88,0,15.85-3.5,15.85-14.21,0-9.47-5.56-14.62-15.65-14.62h-16.68v28.83Z"/>
          <path class="cls-3" d="M538,839.25v121.28h-30.88v-121.28h30.88Z"/>
          <path class="cls-3" d="M578.97,920.58c2.27,10.91,10.91,18.74,21.82,18.74,8.03,0,14.21-3.09,14.21-10.09s-4.12-10.09-18.53-14.41c-30.88-9.47-40.77-21-40.77-40.97,0-28.21,22.03-37.27,44.06-37.27,25.74,0,44.89,8.24,47.56,31.3l-30.88,8.24c-1.03-9.88-8.65-13.79-16.06-13.79-6.38,0-11.94,2.47-11.94,9.26s5.56,10.3,18.94,14c27.59,8.44,39.74,17.3,39.74,40.77,0,27.18-22.03,36.65-48.8,36.65-23.68,0-40.36-7.41-47.36-29.03l28-13.38Z"/>
          <path class="cls-3" d="M718.99,933.14l-14.82-23.06c-5.97-9.26-9.26-17.91-9.26-17.91h-.82s1.23,6.59,1.23,20.18v48.18h-30.88v-121.28h30.47l21,35.83c7.62,12.97,9.47,18.94,9.47,18.94h.82s1.85-5.97,9.47-18.94l21-35.83h30.47v121.28h-30.88v-48.18c0-13.59,1.23-20.18,1.23-20.18h-.82s-3.29,8.65-9.26,17.91l-14.82,23.06h-13.59Z"/>
          <path class="cls-3" d="M804.22,899.99c0-40.77,21.82-63.21,58.48-63.21s58.47,22.44,58.47,63.21-21.82,63.01-58.47,63.01-58.48-22.44-58.48-63.01ZM836.34,900.41c0,22.24,8.44,35.83,26.35,35.83s26.35-13.59,26.35-35.83-8.65-36.03-26.35-36.03-26.35,13.79-26.35,36.03Z"/>
        </g>
      </g>
    </g>
  </g>
</svg>