<svg xmlns="http://www.w3.org/2000/svg" viewBox="0 0 28.27 21.98"><defs><style>.cls-1{fill:#756b63;}</style></defs><g id="Capa_2" data-name="Capa 2"><g id="Capa_1-2" data-name="Capa 1"><path class="cls-1" d="M13.76,5.7l-9,7.45v8A.78.78,0,0,0,5.5,22H11a.79.79,0,0,0,.78-.79V16.49a.78.78,0,0,1,.78-.79H15.7a.79.79,0,0,1,.79.79v4.69a.8.8,0,0,0,.78.79h5.5a.78.78,0,0,0,.78-.78v-8l-9-7.45A.62.62,0,0,0,13.76,5.7Zm14.29,5.07L24,7.39V.59A.59.59,0,0,0,23.36,0H20.61A.59.59,0,0,0,20,.59V4.15L15.63.54a2.34,2.34,0,0,0-3,0L.21,10.77a.6.6,0,0,0-.08.83h0l1.25,1.52a.59.59,0,0,0,.83.08h0L13.76,3.69a.59.59,0,0,1,.75,0L26.05,13.2a.59.59,0,0,0,.83-.08h0l1.25-1.52a.59.59,0,0,0-.08-.83Z"/></g></g></svg>