<?xml version="1.0"?>
<svg width="411.63" height="69.1" xmlns="http://www.w3.org/2000/svg" xmlns:svg="http://www.w3.org/2000/svg" class="mb-3">
 <g class="layer">
  <title>Layer 1</title>
  <path d="m302.2,26.87c-0.86,0.31 -2.52,0.73 -4.21,0.73c-2.2,0 -3.92,-0.57 -5.2,-1.83c-1.3,-1.23 -2.03,-3.26 -2.03,-5.62c0.02,-4.98 3.29,-7.72 7.61,-7.72c1.59,0 2.82,0.33 3.44,0.62l-0.55,2.14c-0.68,-0.31 -1.54,-0.55 -2.87,-0.55c-2.8,0 -4.89,1.74 -4.89,5.42c0,3.59 1.92,5.4 4.54,5.4c0.82,0 1.39,-0.11 1.68,-0.24l0,-3.86l-2.32,0l0,-2.07l4.81,0l0,7.58l-0.01,0zm4.54,-6.81c0,3.09 1.26,5.47 3.53,5.47c2.29,0 3.48,-2.51 3.48,-5.58c0,-2.76 -1.1,-5.45 -3.48,-5.45c-2.34,0 -3.53,2.49 -3.53,5.56zm9.74,-0.2c0,5.16 -2.69,7.81 -6.35,7.81c-3.84,0 -6.13,-3.2 -6.13,-7.59c0,-4.52 2.51,-7.72 6.35,-7.72c3.97,0 6.13,3.31 6.13,7.5zm4.77,5.67c0.31,0.07 0.7,0.07 1.23,0.07c1.65,0 3.07,-0.7 3.07,-2.51c0,-1.74 -1.43,-2.49 -3.15,-2.49l-1.15,0l0,4.93zm0,-6.84l1.19,0c1.67,0 2.71,-0.9 2.71,-2.21c0,-1.35 -0.9,-2.07 -2.56,-2.07c-0.68,0 -1.08,0.04 -1.34,0.11l0,4.17zm-2.58,-5.91c0.84,-0.18 2.25,-0.31 3.64,-0.31c1.83,0 3.08,0.24 4.06,0.97c0.86,0.6 1.39,1.54 1.39,2.76c0,1.37 -0.82,2.62 -2.38,3.22l0,0.07c1.61,0.42 2.91,1.7 2.91,3.66c0,1.3 -0.53,2.31 -1.32,3.04c-0.99,0.93 -2.67,1.39 -5.23,1.39c-1.37,0 -2.4,-0.09 -3.07,-0.18l0,-14.62zm11.84,-0.2l2.6,0l0,14.86l-2.6,0l0,-14.86zm13.12,8.23l-4.99,0l0,4.45l5.58,0l0,2.19l-8.18,0l0,-14.87l7.88,0l0,2.19l-5.28,0l0,3.9l4.99,0l0,2.14zm5.38,-1.44l1.32,0c1.72,0 2.78,-1.01 2.78,-2.49c0,-1.59 -0.97,-2.4 -2.67,-2.42c-0.71,0 -1.19,0.07 -1.43,0.13l0,4.78zm-2.58,-6.59c0.97,-0.18 2.32,-0.31 3.73,-0.31c1.96,0 3.38,0.33 4.32,1.17c0.82,0.71 1.24,1.72 1.24,2.98c0,1.87 -1.15,3.2 -2.58,3.75l0,0.04c1.06,0.4 1.65,1.41 2.01,2.95c0.42,1.85 0.82,3.53 1.08,4.08l-2.67,0c-0.22,-0.44 -0.55,-1.72 -0.93,-3.55c-0.4,-1.92 -1.06,-2.56 -2.49,-2.58l-1.12,0l0,6.13l-2.58,0l0,-14.66l-0.01,0zm11.66,14.67l0,-14.87l2.82,0l3.44,6.37c0.84,1.54 1.68,3.33 2.29,4.9l0.04,0c-0.15,-1.96 -0.24,-3.99 -0.24,-6.37l0,-4.9l2.38,0l0,14.86l-2.62,0l-3.46,-6.48c-0.84,-1.54 -1.72,-3.35 -2.36,-5.01l-0.07,0.02c0.11,1.85 0.15,3.86 0.15,6.5l0,4.96l-2.37,0l0,0.02zm15.64,-7.39c0,3.09 1.26,5.47 3.53,5.47c2.29,0 3.48,-2.51 3.48,-5.58c0,-2.76 -1.1,-5.45 -3.48,-5.45c-2.34,0 -3.53,2.49 -3.53,5.56zm9.74,-0.2c0,5.16 -2.69,7.81 -6.35,7.81c-3.84,0 -6.13,-3.2 -6.13,-7.59c0,-4.52 2.51,-7.72 6.35,-7.72c3.97,0 6.13,3.31 6.13,7.5zm8.97,5.58c0.33,0.07 0.79,0.07 1.24,0.07c2.96,0 4.87,-1.76 4.87,-5.78c0.02,-3.31 -1.61,-5.2 -4.61,-5.2c-0.66,0 -1.17,0.04 -1.5,0.13l0,10.78zm-2.6,-12.66c1.06,-0.2 2.4,-0.31 3.82,-0.31c2.49,0 4.19,0.53 5.4,1.57c1.39,1.15 2.23,2.98 2.23,5.65c0,2.82 -0.88,4.81 -2.2,6.02c-1.32,1.26 -3.42,1.87 -6.02,1.87c-1.34,0 -2.43,-0.09 -3.22,-0.2l0,-14.6l-0.01,0zm21.19,8.03l-4.98,0l0,4.45l5.58,0l0,2.19l-8.18,0l0,-14.87l7.87,0l0,2.19l-5.27,0l0,3.9l4.98,0l0,2.14zm-116.02,22.04l-4.44,0l0,-3.93l13.65,0l0,3.93l-4.53,0l0,13.49l-4.68,0l0,-13.49zm15.72,-3.93l0,9.9c0,2.64 0.9,4.11 2.74,4.11c1.86,0 2.77,-1.34 2.77,-4.11l0,-9.9l4.68,0l0,9.62c0,5.38 -2.69,8.09 -7.57,8.09c-4.76,0 -7.29,-2.61 -7.29,-8.19l0,-9.51l4.67,0l0,-0.01zm26.11,16.98c-0.65,0.34 -2.3,0.72 -4.37,0.72c-6.51,0 -9.38,-4.06 -9.38,-8.71c0,-6.15 4.5,-9.28 9.69,-9.28c1.99,0 3.62,0.39 4.34,0.78l-0.9,3.67a8.38,8.38 0 0 0 -3.23,-0.62c-2.66,0 -4.99,1.58 -4.99,5.14c0,3.18 1.89,5.14 5.09,5.14c1.11,0 2.38,-0.21 3.1,-0.49l0.65,3.65zm6.9,-16.98l0,9.9c0,2.64 0.91,4.11 2.74,4.11c1.86,0 2.77,-1.34 2.77,-4.11l0,-9.9l4.68,0l0,9.62c0,5.38 -2.69,8.09 -7.57,8.09c-4.76,0 -7.29,-2.61 -7.29,-8.19l0,-9.51l4.67,0l0,-0.01zm27.84,11.19c-0.08,-1.99 -0.1,-4.32 -0.1,-7.03l-0.08,0c-0.54,2.3 -1.27,4.91 -1.84,6.82l-1.73,6.07l-3.64,0l-1.45,-6.05c-0.46,-1.89 -0.98,-4.47 -1.4,-6.85l-0.05,0c-0.1,2.46 -0.18,5.04 -0.26,7.03l-0.28,6.23l-4.29,0l1.08,-17.42l6.28,0l1.14,4.68c0.49,1.94 1.01,4.27 1.37,6.39l0.08,0c0.49,-2.12 1.06,-4.58 1.58,-6.41l1.32,-4.65l6.13,0l0.88,17.42l-4.52,0l-0.22,-6.23zm15.75,-1.24l-0.8,-3.13c-0.26,-0.98 -0.59,-2.43 -0.88,-3.44l-0.05,0c-0.26,1.01 -0.52,2.45 -0.75,3.44l-0.75,3.13l3.23,0zm3.31,-14.14l-3.1,3.26l-3.72,0l2.09,-3.26l4.73,0zm-7.16,17.58l-0.98,4.03l-4.83,0l5.04,-17.42l6.23,0l5.2,17.42l-5.04,0l-1.11,-4.03l-4.51,0zm12.59,4.03l0,-17.42l5.5,0l2.77,5.35c0.96,1.73 1.96,4.06 2.74,6.1l0.08,0c-0.26,-2.3 -0.36,-4.73 -0.36,-7.34l0,-4.11l4.26,0l0,17.42l-4.91,0l-2.97,-5.79c-0.96,-1.83 -2.09,-4.19 -2.92,-6.28l-0.1,0c0.13,2.35 0.18,4.96 0.18,7.81l0,4.26l-4.27,0zm-156.02,-29.41l-23.31,-4.57l-3.73,9.41l27.04,-4.84zm13.41,17.38l22.12,8.68l5.19,-8.62l-27.31,-0.06zm14.75,-35.79l-8.04,-6.08l-2.81,27.55l10.85,-21.47zm-24.73,16.25l-20.09,-12.78l-6.94,7.46l27.03,5.32zm4.01,-0.75l-14.18,-19.29l-9.26,4.51l17.28,10.87l6.16,3.91zm3.97,0.72l-6.3,-23.21l-10.03,0.81l12,16.51l4.33,5.89zm24.82,-6.99l-5.35,-8.53l-12.41,24.62l17.76,-16.09zm-18.06,20.12l22.26,-8.58l-1.91,-9.81l-20.35,18.39zm-19.43,3.86l-6.63,22.93l9.05,4.36l-2.42,-27.29zm23.49,-2.44l-5.83,2.24l23.79,0.06l1.74,-9.79l-19.7,7.49zm4.87,22.66l7.97,-6.21l-25.46,-9.93l17.49,16.14zm-11.07,5.32l9.55,-2.85l-20.04,-18.58l10.49,21.43zm-2.26,1.74l-12.02,-24.6l2.07,23.8l9.95,0.8zm-31.3,-11.91l6.77,7.3l7.65,-26.25l-14.42,18.95zm13.99,-22.97l-20.23,12.42l3.69,9.35l16.54,-21.77zm1.05,-3.92l-23.3,4.21l0,10.11l23.3,-14.32zm19.79,-27.34l-9.78,-2.82l7.33,26.78l2.45,-23.96zm-59.62,-2.87l2.34,0l0,69.1l-2.34,0l0,-69.1zm-162.34,23.17l-5.02,0l0,5.3l5.64,0l0,1.53l-7.45,0l0,-14.51l7.15,0l0,1.52l-5.34,0l0,4.65l5.02,0l0,1.51zm2.65,6.83l0,-14.51l1.92,0l4.04,7.16c0.93,1.66 1.74,3.32 2.37,4.82l0.04,0c-0.15,-2.04 -0.2,-3.85 -0.2,-6.18l0,-5.81l1.68,0l0,14.52l-1.79,0l-4.07,-7.23c-0.88,-1.59 -1.74,-3.23 -2.41,-4.89l-0.06,0.02c0.13,1.87 0.15,3.64 0.15,6.24l0,5.86l-1.67,0zm15.15,-12.96l-3.89,0l0,-1.55l9.6,0l0,1.55l-3.9,0l0,12.96l-1.81,0l0,-12.96zm13.93,6.13l-5.02,0l0,5.3l5.64,0l0,1.53l-7.44,0l0,-14.51l7.14,0l0,1.52l-5.34,0l0,4.65l5.02,0l0,1.51zm13.04,0.9l-1.23,-4.03c-0.28,-0.97 -0.49,-1.94 -0.69,-2.84l-0.07,0c-0.19,0.93 -0.43,1.91 -0.69,2.82l-1.23,4.05l3.91,0zm-4.21,1.43l-1.34,4.5l-1.85,0l4.46,-14.51l2.11,0l4.43,14.51l-1.87,0l-1.38,-4.5l-4.56,0zm11.45,-10.01l0,8.93c0,3.06 1.27,4.28 2.97,4.28c1.87,0 3.08,-1.27 3.08,-4.28l0,-8.93l1.81,0l0,8.76c0,4.26 -2.11,5.96 -4.95,5.96c-2.73,0 -4.71,-1.59 -4.71,-5.83l0,-8.89l1.8,0zm13.13,1.55l-3.9,0l0,-1.55l9.61,0l0,1.55l-3.9,0l0,12.96l-1.81,0l0,-12.96zm14.7,-4.78l-2.73,2.45l-1.46,0l2,-2.45l2.19,0zm-1.2,11.81l-1.23,-4.03c-0.28,-0.97 -0.5,-1.94 -0.69,-2.84l-0.07,0c-0.19,0.93 -0.43,1.91 -0.69,2.82l-1.23,4.05l3.91,0zm-4.22,1.43l-1.34,4.5l-1.85,0l4.46,-14.51l2.11,0l4.43,14.51l-1.87,0l-1.38,-4.5l-4.56,0zm11.45,-3.19l1.55,0c1.87,0 3.08,-1.12 3.08,-2.8c0,-1.83 -1.16,-2.71 -3.08,-2.71c-0.73,0 -1.27,0.06 -1.55,0.13l0,5.38zm-1.81,-6.63c0.88,-0.19 2.09,-0.3 3.25,-0.3c1.81,0 3.06,0.34 3.92,1.14c0.71,0.67 1.1,1.66 1.1,2.78c0,1.89 -1.12,3.14 -2.63,3.72l0,0.04c1.1,0.37 1.74,1.4 2.09,3.04c0.43,2.02 0.75,3.36 1.03,3.9l-1.87,0c-0.21,-0.43 -0.54,-1.7 -0.9,-3.51c-0.39,-2 -1.14,-2.76 -2.74,-2.8l-1.44,0l0,6.31l-1.81,0l0,-14.32zm19.61,7c0,-2.86 -1.21,-5.9 -3.92,-5.9c-2.78,0 -4.02,3.01 -4.02,6.03c0,3.01 1.34,5.9 3.98,5.9c2.63,-0.01 3.96,-2.85 3.96,-6.03zm1.51,9.38c-1.7,-0.47 -3.47,-1.1 -4.89,-1.64c-0.28,-0.11 -0.54,-0.21 -0.77,-0.21c-3.14,-0.09 -5.68,-2.58 -5.68,-7.36c0,-4.71 2.5,-7.58 6.01,-7.58c3.49,0 5.73,2.95 5.73,7.34c0,3.79 -1.48,6.11 -3.62,6.91l0,0.09c1.29,0.37 2.69,0.71 3.79,0.95l-0.57,1.5zm4.29,-16.57l0,8.93c0,3.06 1.27,4.28 2.97,4.28c1.87,0 3.08,-1.27 3.08,-4.28l0,-8.93l1.81,0l0,8.76c0,4.26 -2.11,5.96 -4.95,5.96c-2.73,0 -4.72,-1.59 -4.72,-5.83l0,-8.89l1.81,0zm10.67,0l1.81,0l0,14.51l-1.81,0l0,-14.51zm13.67,14.1c-0.6,0.32 -1.79,0.6 -3.29,0.6c-3.72,0 -6.48,-2.5 -6.48,-7.3c0,-4.91 3.02,-7.6 6.85,-7.6c1.53,0 2.52,0.32 2.95,0.56l-0.43,1.49c-0.6,-0.3 -1.4,-0.52 -2.48,-0.52c-2.84,0 -4.97,1.98 -4.97,5.96c0,3.83 1.92,5.85 4.91,5.85c0.99,0 1.98,-0.21 2.61,-0.52l0.33,1.48zm3.06,-6.79c0,3.06 1.35,5.9 3.98,5.9c2.65,0 3.96,-2.86 3.96,-6.03c0,-2.82 -1.21,-5.9 -3.96,-5.9c-2.73,0.01 -3.98,2.94 -3.98,6.03zm9.84,-0.19c0,5.1 -2.67,7.6 -5.96,7.6c-3.42,0 -5.77,-2.86 -5.77,-7.38c0,-4.65 2.5,-7.56 5.99,-7.56c3.5,0 5.74,2.93 5.74,7.34zm-178.2,17.9l-3.9,0l0,-2.75l11.15,0l0,2.75l-3.96,0l0,11.76l-3.29,0l0,-11.76zm11.34,-2.75l0,8.35c0,2.5 0.95,3.77 2.63,3.77c1.72,0 2.67,-1.21 2.67,-3.77l0,-8.35l3.27,0l0,8.14c0,4.48 -2.26,6.61 -6.05,6.61c-3.66,0 -5.81,-2.02 -5.81,-6.65l0,-8.09l3.29,0l0,-0.01zm21.14,14.1c-0.6,0.3 -1.96,0.63 -3.72,0.63c-5.02,0 -7.6,-3.12 -7.6,-7.25c0,-4.95 3.53,-7.71 7.92,-7.71c1.7,0 2.99,0.34 3.57,0.65l-0.67,2.61c-0.67,-0.28 -1.59,-0.54 -2.76,-0.54c-2.61,0 -4.63,1.57 -4.63,4.8c0,2.91 1.72,4.74 4.65,4.74c0.99,0 2.09,-0.22 2.73,-0.47l0.51,2.54zm4.5,-14.1l0,8.35c0,2.5 0.95,3.77 2.63,3.77c1.72,0 2.67,-1.21 2.67,-3.77l0,-8.35l3.27,0l0,8.14c0,4.48 -2.26,6.61 -6.05,6.61c-3.66,0 -5.81,-2.02 -5.81,-6.65l0,-8.09l3.29,0l0,-0.01zm22.75,8.95c-0.06,-1.74 -0.13,-3.85 -0.13,-5.96l-0.06,0c-0.45,1.85 -1.06,3.92 -1.62,5.62l-1.77,5.66l-2.55,0l-1.55,-5.62c-0.47,-1.7 -0.97,-3.77 -1.31,-5.66l-0.04,0c-0.09,1.96 -0.15,4.2 -0.26,6.01l-0.26,5.51l-3.03,0l0.92,-14.51l4.37,0l1.42,4.84c0.45,1.68 0.9,3.49 1.23,5.19l0.06,0c0.41,-1.68 0.9,-3.6 1.38,-5.21l1.55,-4.82l4.28,0l0.8,14.51l-3.21,0l-0.22,-5.56zm14.3,-12.38l-2.63,2.65l-2.63,0l1.81,-2.65l3.45,0zm-2.22,11.76l-0.9,-3.08c-0.26,-0.86 -0.52,-1.94 -0.73,-2.8l-0.04,0c-0.21,0.86 -0.43,1.96 -0.67,2.8l-0.86,3.08l3.2,0zm-3.68,2.45l-1.03,3.73l-3.4,0l4.44,-14.51l4.3,0l4.5,14.51l-3.54,0l-1.12,-3.72l-4.15,0l0,-0.01zm9.82,3.73l0,-14.51l3.83,0l3.01,5.32c0.86,1.53 1.72,3.34 2.37,4.97l0.06,0c-0.22,-1.92 -0.28,-3.87 -0.28,-6.05l0,-4.24l3.01,0l0,14.51l-3.44,0l-3.1,-5.6c-0.86,-1.55 -1.81,-3.42 -2.52,-5.12l-0.07,0.02c0.09,1.92 0.13,3.96 0.13,6.33l0,4.37l-3,0zm20.15,-11.76l-3.9,0l0,-2.75l11.15,0l0,2.75l-3.96,0l0,11.76l-3.29,0l0,-11.76zm11.34,-2.75l0,8.35c0,2.5 0.95,3.77 2.63,3.77c1.72,0 2.67,-1.21 2.67,-3.77l0,-8.35l3.27,0l0,8.14c0,4.48 -2.26,6.61 -6.05,6.61c-3.66,0 -5.81,-2.02 -5.81,-6.65l0,-8.09l3.29,0l0,-0.01zm13.74,6.43l1.29,0c1.63,0 2.6,-0.82 2.6,-2.09c0,-1.33 -0.9,-2 -2.41,-2.02c-0.8,0 -1.25,0.06 -1.48,0.11l0,4zm-3.25,-6.24c1.06,-0.17 2.63,-0.3 4.37,-0.3c2.15,0 3.66,0.32 4.69,1.14c0.86,0.69 1.34,1.7 1.34,3.04c0,1.85 -1.31,3.12 -2.56,3.57l0,0.07c1.01,0.41 1.57,1.38 1.94,2.71c0.45,1.64 0.9,3.53 1.18,4.09l-3.36,0c-0.24,-0.41 -0.58,-1.59 -1.01,-3.38c-0.39,-1.81 -1.01,-2.3 -2.35,-2.32l-0.99,0l0,5.7l-3.25,0l0,-14.32zm11.84,-0.19l3.29,0l0,14.51l-3.29,0l0,-14.51zm5.31,11.13c0.88,0.45 2.24,0.9 3.64,0.9c1.51,0 2.3,-0.62 2.3,-1.57c0,-0.9 -0.69,-1.42 -2.43,-2.05c-2.41,-0.84 -3.98,-2.17 -3.98,-4.28c0,-2.48 2.07,-4.37 5.49,-4.37c1.64,0 2.84,0.34 3.7,0.73l-0.73,2.65c-0.58,-0.28 -1.61,-0.69 -3.03,-0.69c-1.42,0 -2.11,0.65 -2.11,1.4c0,0.93 0.82,1.33 2.69,2.05c2.56,0.95 3.77,2.28 3.77,4.33c0,2.43 -1.87,4.5 -5.86,4.5c-1.66,0 -3.29,-0.43 -4.11,-0.88l0.66,-2.72zm22.87,-2.18c-0.06,-1.74 -0.13,-3.85 -0.13,-5.96l-0.06,0a77.48,77.48 0 0 1 -1.61,5.62l-1.77,5.66l-2.56,0l-1.55,-5.62c-0.47,-1.7 -0.97,-3.77 -1.31,-5.66l-0.04,0c-0.09,1.96 -0.15,4.2 -0.26,6.01l-0.26,5.51l-3.04,0l0.93,-14.51l4.37,0l1.42,4.84c0.45,1.68 0.9,3.49 1.23,5.19l0.06,0c0.41,-1.68 0.9,-3.6 1.38,-5.21l1.55,-4.82l4.28,0l0.8,14.51l-3.21,0l-0.22,-5.56zm7.81,-1.66c0,2.84 1.33,4.84 3.53,4.84c2.22,0 3.49,-2.11 3.49,-4.93c0,-2.61 -1.25,-4.84 -3.51,-4.84c-2.22,0.01 -3.51,2.11 -3.51,4.93zm10.48,-0.19c0,4.76 -2.89,7.64 -7.13,7.64c-4.3,0 -6.82,-3.25 -6.82,-7.38c0,-4.35 2.78,-7.6 7.06,-7.6c4.46,0 6.89,3.34 6.89,7.34z" fill="#ffffff" id="svg_1"/>
 </g>
</svg>