<?xml version="1.0"?>
<svg width="175.09" height="14.64" xmlns="http://www.w3.org/2000/svg" xmlns:svg="http://www.w3.org/2000/svg">
 <g class="layer">
  <title>Layer 1</title>
  <path d="m17.82,3.73l0,-1.98l-10.69,0l0,1.98l-7.13,0l0,3.56l8.32,0l0,-1.98l8.32,0l0,1.98l8.31,0l0,-3.56l-7.13,0zm-17.82,7.13l24.95,0l0,3.57l-24.95,0l0,-3.57zm32.54,3.56l0,-8.32l-2.84,0l0,-2.36l8.45,0l0,2.36l-2.9,0l0,8.33l-2.71,0l0,-0.01zm15.31,-10.68l0,7.09c0,2.9 -2.03,3.81 -4.5,3.81s-4.52,-0.91 -4.52,-3.81l0,-7.09l2.72,0l0,6.31c0,1.38 0.24,2.32 1.8,2.32c1.54,0 1.78,-0.94 1.78,-2.36l0,-6.27l2.72,0zm10.91,8.38c-0.98,1.69 -2.23,2.52 -4.7,2.52c-2.94,0 -4.97,-2.03 -4.97,-5.59s1.94,-5.53 5.3,-5.53c2.29,0 3.68,1.03 4.46,2.76l-2.65,1.28c-0.29,-1 -0.74,-1.63 -1.89,-1.63c-1.51,0 -2.43,1.2 -2.43,3.19c0,1.96 0.83,3.1 2.5,3.1c0.85,0 1.61,-0.49 2,-1.47l2.38,1.37zm9.88,-8.38l0,7.09c0,2.9 -2.03,3.81 -4.5,3.81s-4.52,-0.91 -4.52,-3.81l0,-7.09l2.72,0l0,6.31c0,1.38 0.24,2.32 1.8,2.32c1.54,0 1.78,-0.94 1.78,-2.36l0,-6.27l2.72,0zm6.68,8.27l-1.31,-2.03c-0.52,-0.82 -0.81,-1.58 -0.81,-1.58l-0.07,0s0.11,0.58 0.11,1.78l0,4.24l-2.72,0l0,-10.68l2.69,0l1.85,3.16c0.67,1.14 0.83,1.67 0.83,1.67l0.07,0s0.16,-0.53 0.83,-1.67l1.85,-3.16l2.69,0l0,10.69l-2.73,0l0,-4.24c0,-1.2 0.11,-1.78 0.11,-1.78l-0.07,0s-0.29,0.76 -0.82,1.58l-1.31,2.03l-1.19,0l0,-0.01zm14.42,0.42l-3.94,0l-0.67,2l-2.85,0l3.86,-10.69l3.32,0l3.9,10.69l-2.92,0l-0.7,-2zm-3.34,-9.71l1.18,-2.72l3.34,0l-2.05,2.72l-2.47,0zm0.17,7.44l2.38,0l-0.29,-0.82c-0.64,-1.78 -0.85,-3.12 -0.85,-3.12l-0.07,0s-0.27,1.36 -0.87,3.1l-0.3,0.84zm13.91,-1.58c0.58,0.78 0.8,1.25 0.8,1.25l0.07,0s-0.05,-0.83 -0.05,-2.2l0,-3.9l2.72,0l0,10.69l-2.43,0l-3.63,-4.73c-0.69,-0.89 -0.94,-1.43 -0.94,-1.43l-0.07,0s0.11,0.8 0.11,2.38l0,3.79l-2.72,0l0,-10.69l2.52,0l3.62,4.84zm10.77,5.84l0,-8.32l-2.85,0l0,-2.36l8.45,0l0,2.36l-2.9,0l0,8.33l-2.7,0l0,-0.01zm15.32,-10.68l0,7.09c0,2.9 -2.03,3.81 -4.5,3.81s-4.52,-0.91 -4.52,-3.81l0,-7.09l2.72,0l0,6.31c0,1.38 0.24,2.32 1.8,2.32c1.54,0 1.78,-0.94 1.78,-2.36l0,-6.27l2.72,0zm7.78,10.68c-0.34,-0.25 -0.49,-0.69 -0.6,-1.14l-0.38,-1.51c-0.2,-0.8 -0.53,-0.93 -1.27,-0.93l-0.94,0l0,3.57l-2.72,0l0,-10.67l4.37,0c2.38,0 3.97,0.82 3.97,3.34c0,1.65 -0.91,2.52 -2.3,2.68l0,0.05c0.98,0.16 1.49,0.56 1.74,1.49l0.54,1.96c0.13,0.44 0.25,0.78 0.62,1.16l-3.03,0zm-3.19,-5.84l1.45,0c0.87,0 1.4,-0.31 1.4,-1.25c0,-0.83 -0.49,-1.29 -1.38,-1.29l-1.47,0l0,2.54zm10.17,-4.84l0,10.69l-2.72,0l0,-10.69l2.72,0zm3.61,7.16c0.2,0.96 0.96,1.65 1.92,1.65c0.71,0 1.25,-0.27 1.25,-0.89s-0.36,-0.89 -1.63,-1.27c-2.72,-0.83 -3.59,-1.85 -3.59,-3.61c0,-2.49 1.94,-3.28 3.88,-3.28c2.27,0 3.95,0.73 4.19,2.76l-2.72,0.73c-0.09,-0.87 -0.76,-1.22 -1.41,-1.22c-0.56,0 -1.05,0.22 -1.05,0.82c0,0.62 0.49,0.91 1.67,1.23c2.43,0.74 3.5,1.52 3.5,3.59c0,2.39 -1.94,3.23 -4.3,3.23c-2.09,0 -3.56,-0.65 -4.17,-2.56l2.46,-1.18zm12.34,1.11l-1.31,-2.03c-0.53,-0.82 -0.82,-1.58 -0.82,-1.58l-0.07,0s0.11,0.58 0.11,1.78l0,4.24l-2.72,0l0,-10.68l2.69,0l1.85,3.16c0.67,1.14 0.83,1.67 0.83,1.67l0.07,0s0.16,-0.53 0.83,-1.67l1.85,-3.16l2.69,0l0,10.69l-2.72,0l0,-4.24c0,-1.2 0.11,-1.78 0.11,-1.78l-0.07,0s-0.29,0.76 -0.82,1.58l-1.31,2.03l-1.19,0l0,-0.01zm7.51,-2.92c0,-3.59 1.92,-5.57 5.15,-5.57c3.23,0 5.15,1.98 5.15,5.57c0,3.57 -1.92,5.55 -5.15,5.55c-3.23,0 -5.15,-1.98 -5.15,-5.55zm2.83,0.03c0,1.96 0.74,3.16 2.32,3.16c1.58,0 2.32,-1.2 2.32,-3.16s-0.76,-3.17 -2.32,-3.17c-1.56,0 -2.32,1.22 -2.32,3.17z" fill="#ffffff" id="svg_1"/>
 </g>
</svg>